# xmcd
#
# Track frame offsets: 
#        150
#        13259
#        25817
#        35778
#        47379
#        60779
#        72915
#        82589
#        96253
#        108176
#        119932
#        134036
#        143943
#        156071
#        167521
#        181336
#        195216
#        208541
#        222498
#        233824
#        250275
#        264329
#        280752
#        294208
#        309744
#        323422
#        338585
#
# Disc length: 4701 seconds
#
# Revision: 1
# Processed by: cddbd v1.5.2PL0 Copyright (c) Steve Scherf et al.
# Submitted via: ExactAudioCopyFreeDBPlugin 1.0
#
DISCID=79125b1b
DTITLE=Martha Reeves and The Vandellas - 50th Anniversary:  The Singles 
DTITLE=Collection, 1962-1972 [box set]
DYEAR=2014
DGENRE=Soul
TTITLE0=Jimmy Mack
TTITLE1=Third Finger Left Hand
TTITLE2=Love Bug Leave My Heart Alone
TTITLE3=One Way Out
TTITLE4=Honey Chile
TTITLE5=Show Me the Way
TTITLE6=I Promise to Wait My Love
TTITLE7=Forget Me Not
TTITLE8=I Can't Dance to That Music You're Playin'
TTITLE9=I Tried
TTITLE10=Sweet Darlin'
TTITLE11=Without You
TTITLE12=Honey Love
TTITLE13=I'm in Love (And I Know It)
TTITLE14=Taking My Love (And Leaving Me)
TTITLE15=Heartless
TTITLE16=I Should Be Proud
TTITLE17=Love Guess Who
TTITLE18=I Gotta Let You Go
TTITLE19=You're the Loser Now
TTITLE20=Bless You
TTITLE21=Hope I Don't Get My Heart Broke
TTITLE22=In and Out of My Life
TTITLE23=Your Love Makes it Worthwhile
TTITLE24=Tear it on Down
TTITLE25=I Want You Back
TTITLE26=Jimmy Mack (stereo single version)
EXTD=Motown B0017485-02
EXTT0=
EXTT1=
EXTT2=
EXTT3=
EXTT4=
EXTT5=
EXTT6=
EXTT7=
EXTT8=
EXTT9=
EXTT10=
EXTT11=
EXTT12=
EXTT13=
EXTT14=
EXTT15=
EXTT16=
EXTT17=
EXTT18=
EXTT19=
EXTT20=
EXTT21=
EXTT22=
EXTT23=
EXTT24=
EXTT25=
EXTT26=
PLAYORDER=
